<?xml version="1.0" encoding="utf-8"?>
<!-- Generator: Adobe Illustrator 28.3.0, SVG Export Plug-In . SVG Version: 6.00 Build 0)  -->
<svg version="1.1" id="Layer_1" xmlns="http://www.w3.org/2000/svg" xmlns:xlink="http://www.w3.org/1999/xlink" x="0px" y="0px"
	 viewBox="0 0 2088.16 1002.84" style="enable-background:new 0 0 2088.16 1002.84;" xml:space="preserve">
<style type="text/css">
	.st0{fill:#D33163;}
</style>
<g>
	<g>
		<path class="st0" d="M284.52,515.43c1.76-11.2,2.65-22.96,2.65-35.28V345.33c0-15.68-1.18-29.26-3.53-40.74
			c-2.36-11.48-5.15-20.86-8.38-28.14h89.52c22.05,0,42.12,4.76,60.2,14.28c18.08,9.52,32.56,24.15,43.44,43.89
			c10.87,19.74,16.32,44.31,16.32,73.71c0,29.96-5.51,55.51-16.54,76.65c-11.03,21.14-25.95,37.17-44.76,48.09
			c-18.82,10.92-39.99,16.38-63.5,16.38h-84.67C279.67,537.98,282.76,526.64,284.52,515.43z M356.84,533.5
			c17.93,0,32.41-5.11,43.44-15.33c11.02-10.22,18.89-23.94,23.59-41.16c4.7-17.22,7.06-36.89,7.06-59.01
			c0-37.52-6.77-67.83-20.29-90.93c-13.53-23.1-33.52-34.65-59.98-34.65c-4.71,0-9.34,0.14-13.89,0.42
			c-4.56,0.28-9.04,0.84-13.45,1.68l16.76-13.86l-1.32,23.94c-0.59,18.48-0.88,32.06-0.88,40.74v134.82
			c0,24.64,1.32,46.2,3.97,64.68l-16.76-14.7C335.97,532.38,346.55,533.5,356.84,533.5z"/>
		<path class="st0" d="M528.39,515.43c1.76-11.2,2.65-22.96,2.65-35.28V345.33c0-14.28-0.88-26.46-2.65-36.54
			c-1.76-10.08-4.85-20.86-9.26-32.34h65.71c-1.47,10.36-2.36,21.56-2.65,33.6c-0.3,12.04-0.44,23.8-0.44,35.28v134.82
			c0,25.76,1.47,48.86,4.41,69.3h-67.03C523.54,537.98,526.63,526.64,528.39,515.43z M632.25,423.87
			c-11.62-4.76-26.09-7.14-43.44-7.14h-33.08v-16.38h33.08c17.93,0,32.63-2.24,44.1-6.72c11.47-4.48,22.93-12.74,34.4-24.78v79.8
			C655.54,436.89,643.86,428.64,632.25,423.87z M665.98,318.45c-8.23-7.84-18.52-14-30.87-18.48c-12.35-4.48-27.78-7-46.3-7.56
			h-15.44v-15.96h117.75l-1.76,72.24C682,336.38,674.21,326.3,665.98,318.45z M573.37,533.5h14.11c19.4-0.28,35.2-2.59,47.41-6.93
			c12.2-4.34,22.27-10.43,30.21-18.27c7.94-7.84,16.17-18.48,24.7-31.92l0.88,73.08H573.37V533.5z"/>
		<path class="st0" d="M731.34,303.12c-4.71-9.94-10.29-18.83-16.76-26.67h87.76c-1.47,2.8-2.65,6.72-3.53,11.76
			s-1.32,10.64-1.32,16.8c0,12.6,1.47,24.08,4.41,34.44l50.27,167.58h-11.91l51.16-167.58c1.47-4.76,2.57-10.01,3.31-15.75
			c0.73-5.74,1.1-11.41,1.1-17.01c0-6.44-0.44-12.32-1.32-17.64c-0.88-5.32-2.36-9.52-4.41-12.6h55.12
			c-7.06,7.84-13.23,16.94-18.52,27.3c-5.29,10.36-10.44,22.96-15.43,37.8l-69.68,209.16h-25.14l-70.12-209.16
			C741.04,325.88,736.04,313.07,731.34,303.12z"/>
		<path class="st0" d="M923.97,522.15c5.29-10.36,10.29-22.96,14.99-37.8l69.68-209.16h25.58l70.12,209.16
			c5.29,15.68,10.29,28.49,14.99,38.43c4.7,9.94,10.29,18.83,16.76,26.67h-87.76c1.47-2.79,2.65-6.72,3.53-11.76
			s1.32-10.64,1.32-16.8c0-11.48-1.62-22.96-4.85-34.44L998.5,318.87h11.91l-51.16,167.58c-1.47,5.04-2.65,10.43-3.53,16.17
			c-0.88,5.74-1.32,11.28-1.32,16.59c0,6.44,0.51,12.32,1.54,17.64c1.03,5.32,2.57,9.52,4.63,12.6h-55.12
			C912.5,541.62,918.67,532.52,923.97,522.15z M1068.61,447.39v13.86H956.6v-13.86H1068.61z"/>
		<path class="st0" d="M1163.87,515.43c1.76-11.2,2.65-22.96,2.65-35.28V345.33c0-11.76-0.88-23.24-2.65-34.44
			c-1.76-11.76-5-23.24-9.7-34.44h71.88c-3.53,11.48-5.95,22.68-7.28,33.6c-1.32,10.92-1.98,22.68-1.98,35.28v134.82
			c0,13.17,0.44,25.2,1.32,36.12s2.5,21.98,4.85,33.18h-68.36C1159.01,537.98,1162.1,526.64,1163.87,515.43z M1208.41,532.23h18.08
			c14.99,0,28.15-2.03,39.47-6.09c11.31-4.06,21.17-10.22,29.55-18.48c8.38-8.26,15.8-18.69,22.27-31.29l-0.88,73.08h-108.49V532.23
			z"/>
		<path class="st0" d="M1396.5,537.27c-16.91-12.32-30.06-29.33-39.47-51.03c-9.41-21.7-14.11-46.27-14.11-73.71
			c0-27.44,4.78-51.87,14.33-73.29c9.55-21.42,23-38.08,40.35-49.98c17.34-11.9,37.33-17.85,59.98-17.85
			c21.46,0,40.57,6.02,57.33,18.06c16.76,12.04,29.84,28.91,39.25,50.61c9.41,21.7,14.11,46.55,14.11,74.55
			c0,27.44-4.71,51.87-14.11,73.29c-9.41,21.42-22.79,38.08-40.13,49.98c-17.35,11.9-37.34,17.85-59.98,17.85
			C1432.58,555.76,1413.4,549.59,1396.5,537.27z M1492.41,523.42c7.06-7.56,12.27-18.41,15.66-32.55
			c3.38-14.13,5.07-31.15,5.07-51.03c0-29.12-2.72-54.74-8.16-76.86c-5.44-22.12-13.31-39.34-23.59-51.66
			c-10.29-12.32-22.2-18.48-35.72-18.48c-10.88,0-19.84,3.5-26.9,10.5c-7.06,7-12.28,17.43-15.66,31.29
			c-3.38,13.86-5.07,31.15-5.07,51.87c0,28,2.65,53.2,7.94,75.6c5.29,22.4,13.01,40.11,23.15,53.13s22.27,19.53,36.38,19.53
			C1476.38,534.76,1485.36,530.97,1492.41,523.42z"/>
		<path class="st0" d="M1611.92,515.43c1.76-11.2,2.65-22.96,2.65-35.28V345.33c0-12.6-1.03-24.78-3.09-36.54
			c-1.76-10.08-4.85-20.86-9.26-32.34h74.97c-4.41,11.2-7.43,22.26-9.04,33.18c-1.62,10.92-2.42,22.82-2.42,35.7v134.82
			c0,1.12,0,2.25,0,3.36c0,12.88,0.58,22.54,1.76,28.98c2.05,14,5.29,26.32,9.7,36.96h-74.53
			C1607.07,537.98,1610.15,526.64,1611.92,515.43z M1655.58,446.97l69.68-101.64c8.82-12.88,14.99-24.57,18.52-35.07
			s5.14-21.77,4.85-33.81h61.3c-9.7,7.84-19.04,16.73-28,26.67c-8.97,9.94-19.04,22.19-30.21,36.75
			c-4.12,5.32-8.23,10.64-12.35,15.96l-77.17,101.64L1655.58,446.97z M1702.54,420.09c-1.62-2.52-3.6-4.06-5.95-4.62
			c-2.36-0.56-6.03-0.84-11.03-0.84l6.62-11.34h34.4c9.11,0,16.54,0.84,22.27,2.52c5.73,1.68,9.63,5.32,11.69,10.92l29.55,86.1
			c6.17,19.04,14.11,34.58,23.81,46.62h-66.59l-39.25-116.76C1706,426.81,1704.16,422.61,1702.54,420.09z"/>
	</g>
	<g>
		<path class="st0" d="M674.75,632.26H660.1v65.86h-9.39v-65.86h-23.59v65.86h-9.28v-32.14l-17.67-0.1
			c1.34,2.56,2.01,5.24,2.01,8.06c0,5.77-2.07,10.37-6.21,13.81c-4.14,3.44-9.63,5.16-16.49,5.16c-4.77,0-9.04-0.84-12.8-2.51
			c-3.76-1.67-6.71-4.01-8.83-7.03c-2.12-3.01-3.19-6.49-3.19-10.42h8.72c0,3.73,1.43,6.82,4.3,9.24c2.87,2.43,6.58,3.64,11.13,3.64
			c4.47,0,8.05-1.16,10.73-3.49c2.68-2.32,4.02-5.36,4.02-9.09c0-2.82-0.86-5.27-2.57-7.37h-0.34l-0.11-0.59
			c-2.76-3.01-6.97-4.52-12.64-4.52h-4.36v-6.68h4.36c4.55,0,8.09-1.1,10.62-3.29c2.53-2.19,3.8-4.77,3.8-7.72
			c0-3.54-1.31-6.36-3.91-8.45c-2.61-2.1-5.89-3.15-9.84-3.15c-4.1,0-7.53,1.03-10.29,3.1c-2.76,2.06-4.14,4.8-4.14,8.21h-8.72
			c0-5.57,2.16-10.01,6.49-13.32c4.32-3.31,9.88-4.96,16.66-4.96c6.56,0,11.89,1.59,15.99,4.77c4.1,3.18,6.15,7.42,6.15,12.73
			c0,3.8-1.17,7.03-3.52,9.68c-2.35,2.65-5.72,4.47-10.12,5.45v0.2c2.09,0.26,4.1,0.88,6.04,1.87h24.71v-33.81h56.91V632.26z"/>
		<path class="st0" d="M805.58,632.26h-14.76v65.86h-9.28v-39.12h-20.57v7.47c0,6.55-1.75,11.6-5.26,15.14
			c-3.5,3.54-8.5,5.31-14.98,5.31c-6.19,0-11.18-1.59-14.98-4.77c-3.8-3.18-5.7-7.39-5.7-12.63c0-4.06,1.16-7.47,3.47-10.22h-12.41
			c-7.16,0-12.77,1.33-16.83,3.98c-4.06,2.65-6.09,6.6-6.09,11.84c0,5.18,1.79,9.18,5.37,11.99c3.58,2.82,8.76,4.23,15.54,4.23h2.46
			v6.59h-3.69c-8.87,0-15.93-1.97-21.19-5.9c-5.26-3.93-7.88-9.63-7.88-17.1c0-7.6,2.89-13.29,8.67-17.05
			c5.78-3.77,13.51-5.65,23.2-5.65h41.6v-19.95h-84.31v-6.88h137.65V632.26z M752.24,658.99h-10.29c-3.88,0-7.03,0.95-9.45,2.85
			c-2.42,1.9-3.64,4.46-3.64,7.67c0,3.15,1.1,5.67,3.3,7.57c2.2,1.9,5.01,2.85,8.44,2.85c3.65,0,6.5-1.15,8.55-3.44
			c2.05-2.29,3.08-5.47,3.08-9.53V658.99z M781.54,632.26h-20.57v19.95h20.57V632.26z"/>
		<path class="st0" d="M814.41,698.11v-65.86h-14.76v-6.88h38.8v6.88H823.8v65.86H814.41z"/>
		<path class="st0" d="M916.16,632.26H901.4v65.86h-9.39v-41.87h-16.33c-7.16,0-12.77,1.47-16.83,4.42
			c-4.06,2.95-6.09,7.31-6.09,13.07c0,5.57,1.79,9.9,5.37,12.98c3.58,3.08,8.76,4.62,15.54,4.62h2.46v6.59h-3.69
			c-8.87,0-15.93-2.08-21.19-6.24c-5.26-4.16-7.88-10.17-7.88-18.04c0-8.19,2.89-14.32,8.67-18.38c5.78-4.06,13.51-6.09,23.2-6.09
			h16.77v-16.91h-59.49v-6.88h83.64V632.26z"/>
		<path class="st0" d="M930.64,653.68c-1.23,1.05-2.74,1.57-4.53,1.57c-1.79,0-3.3-0.52-4.53-1.57c-1.23-1.05-1.84-2.36-1.84-3.93
			c0-1.51,0.63-2.8,1.9-3.88c1.27-1.08,2.76-1.62,4.47-1.62c1.79,0,3.3,0.54,4.53,1.62s1.84,2.38,1.84,3.88
			C932.48,651.32,931.87,652.64,930.64,653.68z M930.64,683.52c-1.23,1.08-2.74,1.62-4.53,1.62c-1.72,0-3.21-0.54-4.47-1.62
			c-1.27-1.08-1.9-2.37-1.9-3.88c0-1.51,0.63-2.8,1.9-3.88c1.27-1.08,2.76-1.62,4.47-1.62c1.79,0,3.3,0.54,4.53,1.62
			c1.23,1.08,1.84,2.38,1.84,3.88C932.48,681.14,931.87,682.44,930.64,683.52z"/>
		<path class="st0" d="M1045.14,603.01c6.52,1.87,11.74,4.72,15.65,8.55c3.91,3.83,5.87,8.54,5.87,14.11v1.67h-9.39v-1.57
			c0-4.46-1.66-8.09-4.98-10.91c-3.32-2.82-7.51-4.83-12.58-6.05c-5.07-1.21-10.4-1.82-15.99-1.82c-9.32,0-17.24,1.36-23.76,4.08
			c-6.52,2.72-9.86,7.49-10.01,14.3h14.76v6.88h-14.65v65.86h-9.39v-65.86h-14.76v-6.88h14.76c0.07-5.77,2.09-10.53,6.04-14.3
			c3.95-3.77,9.13-6.52,15.54-8.26c6.41-1.74,13.57-2.61,21.47-2.61C1031.48,600.21,1038.61,601.15,1045.14,603.01z"/>
		<path class="st0" d="M1021.26,666.66v10.81c0,4.32,1.17,7.8,3.52,10.42c2.35,2.62,5.91,3.93,10.68,3.93
			c4.17,0,7.44-1.19,9.78-3.59c2.35-2.39,3.52-5.59,3.52-9.58v-1.28h9.06v1.38c0,6.23-1.98,11.14-5.93,14.74
			c-3.95,3.6-9.35,5.41-16.21,5.41c-7.6,0-13.47-1.98-17.61-5.95c-4.14-3.96-6.21-9.32-6.21-16.07v-17.2h16.33
			c6.34,0,11.5-1.26,15.49-3.78c3.99-2.52,5.98-6.24,5.98-11.16c0-4.06-1.23-7.26-3.69-9.58c-2.46-2.32-5.82-3.49-10.06-3.49
			c-4.25,0-7.62,1.16-10.12,3.49c-2.5,2.33-3.75,5.49-3.75,9.49c0,1.38,0.11,2.82,0.34,4.32h-9.28c-0.3-2.1-0.45-3.6-0.45-4.52
			c0-3.93,0.95-7.4,2.85-10.42c1.9-3.01,4.6-5.36,8.11-7.03c3.5-1.67,7.6-2.51,12.3-2.51c7.01,0,12.63,1.84,16.88,5.5
			c4.25,3.67,6.37,8.75,6.37,15.24c0,6.95-2.57,12.25-7.72,15.92c-5.14,3.67-11.85,5.5-20.13,5.5H1021.26z M1095.84,625.37v6.88
			h-14.76v65.86h-9.39v-72.74H1095.84z"/>
		<path class="st0" d="M1241.54,632.26h-14.65v65.86h-9.28V670.3c-1.86,2.69-4.38,4.77-7.55,6.24c-3.17,1.47-6.91,2.21-11.24,2.21
			c-6.41,0-11.57-1.49-15.49-4.47c-3.91-2.98-6.47-7.13-7.66-12.43c-0.97-3.01-2.59-5.41-4.86-7.18c-2.28-1.77-5.16-2.65-8.67-2.65
			c-4.85,0-8.54,1.62-11.07,4.87c-2.53,3.24-3.8,7.62-3.8,13.12v1.47h-7.94V670c0-5.44-1.21-9.8-3.63-13.07
			c-2.42-3.28-5.95-4.91-10.57-4.91c-4.85,0-8.57,1.43-11.18,4.28c-2.61,2.85-3.91,6.57-3.91,11.16c0,4.98,1.56,9.01,4.69,12.09
			c3.13,3.08,7.49,4.62,13.08,4.62c0.67,0,1.75-0.06,3.24-0.2v7.17c-1.94,0.13-3.21,0.2-3.8,0.2c-5.67,0-10.51-1.03-14.54-3.1
			c-4.02-2.06-7.04-4.91-9.06-8.55c-2.01-3.64-3.02-7.78-3.02-12.43c0-4.59,0.99-8.58,2.96-11.99c1.97-3.41,4.71-6.01,8.22-7.81
			c3.5-1.8,7.53-2.7,12.08-2.7c5.44,0,9.73,1.38,12.86,4.13c3.13,2.75,5.29,6.13,6.48,10.12h0.34c1.04-4,3.11-7.37,6.2-10.12
			c3.09-2.75,7.36-4.13,12.8-4.13c4.77,0,8.87,1.25,12.3,3.74v-16.22h-85.09v-6.88h151.74V632.26z M1217.61,632.26h-33.43v22.12
			c0,5.5,1.4,9.78,4.19,12.83c2.8,3.05,7.03,4.57,12.69,4.57c5.14,0,9.19-1.46,12.13-4.37c2.94-2.91,4.42-6.54,4.42-10.86V632.26z"
			/>
		<path class="st0" d="M1206.5,614.41c-1.23,1.08-2.7,1.62-4.42,1.62c-1.79,0-3.3-0.54-4.53-1.62c-1.23-1.08-1.84-2.37-1.84-3.88
			c0-1.51,0.61-2.8,1.84-3.88c1.23-1.08,2.74-1.62,4.53-1.62c1.72,0,3.19,0.54,4.42,1.62c1.23,1.08,1.84,2.38,1.84,3.88
			C1208.35,612.04,1207.73,613.33,1206.5,614.41z"/>
		<path class="st0" d="M1329.09,632.26v21.33c1.64-3.15,4.1-5.67,7.38-7.57c3.28-1.9,7.27-2.85,11.96-2.85
			c4.47,0,8.5,0.95,12.08,2.85c3.58,1.9,6.35,4.54,8.33,7.91c1.97,3.38,2.96,7.22,2.96,11.55c0,4.65-1.01,8.68-3.02,12.09
			c-2.01,3.41-4.79,6.01-8.33,7.81c-3.54,1.8-7.55,2.7-12.02,2.7c-2.76,0-5.07-0.23-6.93-0.69v-6.49c1.19,0.26,2.76,0.39,4.7,0.39
			c4.7,0,8.55-1.39,11.57-4.18c3.02-2.78,4.53-6.6,4.53-11.45c0-4.65-1.57-8.39-4.69-11.21c-3.13-2.82-7.05-4.23-11.74-4.23
			c-5.52,0-9.69,1.61-12.52,4.82c-2.83,3.21-4.25,7.01-4.25,11.4v31.65h-8.95v-19.86c-1.72,3.08-4.27,5.55-7.66,7.42
			c-3.39,1.87-7.55,2.8-12.47,2.8c-4.62,0-8.74-0.93-12.35-2.8c-3.62-1.87-6.43-4.52-8.44-7.96c-2.01-3.44-3.02-7.45-3.02-12.04
			c0-4.52,1.02-8.49,3.08-11.89c2.05-3.41,4.9-6.03,8.55-7.86c3.65-1.83,7.83-2.75,12.52-2.75c4.77,0,8.83,0.92,12.19,2.75
			c3.35,1.84,5.89,4.26,7.6,7.27v-20.94h-54.79v-6.88h117.18v6.88H1329.09z M1312.49,679.24c2.57-1.57,4.49-3.55,5.76-5.95
			c1.27-2.39,1.9-4.86,1.9-7.42c0-2.62-0.61-5.13-1.84-7.52c-1.23-2.39-3.15-4.34-5.76-5.85c-2.61-1.51-5.82-2.26-9.62-2.26
			c-4.92,0-9.04,1.41-12.36,4.23c-3.32,2.82-4.98,6.55-4.98,11.21c0,4.91,1.62,8.8,4.86,11.65c3.24,2.85,7.4,4.28,12.47,4.28
			C1306.73,681.6,1309.92,680.81,1312.49,679.24z"/>
		<path class="st0" d="M1325.52,725.44c-5.96,0-11.01-1.36-15.15-4.08c-4.14-2.72-6.21-6.87-6.21-12.43c0-4.91,1.86-8.91,5.59-11.99
			c3.73-3.08,8.91-4.62,15.54-4.62h3.8v5.8h-3.13c-4.02,0-7.16,0.98-9.39,2.95c-2.24,1.97-3.35,4.49-3.35,7.57
			c0,3.47,1.29,6.03,3.86,7.67c2.57,1.64,5.83,2.46,9.78,2.46c3.06,0,5.78-0.33,8.16-0.98v6.39
			C1332.26,725.01,1329.09,725.44,1325.52,725.44z"/>
		<path class="st0" d="M1501.74,632.26h-14.76v65.86h-9.06v-19.76c-1.94,3.15-4.72,5.65-8.33,7.52c-3.62,1.87-7.92,2.8-12.92,2.8
			c-5,0-9.43-0.97-13.31-2.9c-3.88-1.93-6.88-4.65-9-8.16c-2.12-3.5-3.19-7.58-3.19-12.24c0-3.28,0.63-6.32,1.9-9.14h-13.31
			c-7.16,0-12.77,1.47-16.83,4.42c-4.06,2.95-6.09,7.31-6.09,13.07c0,5.57,1.79,9.9,5.37,12.98c3.58,3.08,8.76,4.62,15.54,4.62h2.46
			v6.59h-3.69c-8.87,0-15.93-2.08-21.19-6.24c-5.26-4.16-7.88-10.17-7.88-18.04c0-8.19,2.89-14.32,8.67-18.38
			c5.78-4.06,13.51-6.09,23.2-6.09h18.9c2.24-2.03,4.94-3.6,8.11-4.72c3.17-1.11,6.61-1.67,10.34-1.67c5.07,0,9.41,0.93,13.03,2.8
			c3.61,1.87,6.35,4.37,8.22,7.52v-20.84h-101.31v-6.88h125.12V632.26z M1469.48,679.68c2.87-1.6,4.99-3.65,6.37-6.14
			c1.38-2.49,2.07-5.05,2.07-7.67v-0.1c0-2.75-0.69-5.37-2.07-7.86c-1.38-2.49-3.5-4.52-6.37-6.09c-2.87-1.57-6.36-2.36-10.45-2.36
			c-3.5,0-6.67,0.66-9.5,1.97c-2.83,1.31-5.07,3.19-6.71,5.65c-1.64,2.46-2.46,5.32-2.46,8.6c0,5.05,1.75,9.04,5.26,11.99
			c3.5,2.95,7.97,4.42,13.42,4.42C1463.12,682.09,1466.61,681.29,1469.48,679.68z"/>
		<path class="st0" d="M1510.46,698.11v-65.86h-14.76v-6.88h38.8v6.88h-14.65v65.86H1510.46z"/>
	</g>
</g>
</svg>
