<svg width="16" height="16" viewBox="0 0 16 16" fill="none" xmlns="http://www.w3.org/2000/svg">
<path d="M12.9996 10.7992C12.5585 9.83959 13.0397 8.75278 12.1562 8.00541C13.0189 7.25854 12.5481 6.16709 12.9874 5.21178C13.0127 5.15009 13.0062 5.08459 12.9777 5.03219C12.9491 4.97979 12.8984 4.94098 12.8353 4.93336C11.829 4.85724 11.1899 3.8754 10.1381 4.30522C9.94799 3.1597 8.81551 3.03948 8.25428 2.16376C8.21661 2.10987 8.15931 2.08301 8.10216 2.08301C8.04502 2.08301 7.98772 2.10971 7.95004 2.16376C7.38882 3.03948 6.26841 3.1597 6.07846 4.30522C5.02666 3.8754 4.37532 4.85724 3.36905 4.93336C3.30594 4.94098 3.25523 4.97979 3.22666 5.03219C3.19809 5.08459 3.19165 5.15025 3.21693 5.21178C3.65806 6.1714 3.1769 7.25788 4.06041 8.00541C3.19762 8.75228 3.66842 9.84407 3.22917 10.7992C3.2039 10.8606 3.21033 10.9264 3.2389 10.9786C3.26748 11.031 3.31818 11.0698 3.38129 11.0775C4.38757 11.1536 5.03827 12.1427 6.09008 11.7127C6.28019 12.8582 7.40122 12.9713 7.96229 13.8471C7.99997 13.901 8.05727 13.9278 8.11441 13.9278C8.17155 13.9278 8.22885 13.9011 8.26652 13.8471C8.82775 12.9713 9.9447 12.8531 10.1348 11.7078C11.1866 12.1379 11.8414 11.1537 12.8475 11.0776C12.9106 11.07 12.9613 11.0312 12.9899 10.9788C13.0185 10.9264 13.0249 10.8606 12.9996 10.7992ZM8.10201 8.01536L8.10091 8.01337H8.10326L8.10201 8.01536Z" fill="#D33163"/>
<path d="M2.89926 13.792C1.20714 13.6025 0.814573 12.5737 0.814573 11.0981C0.814573 10.4348 0.868721 10.3536 0.868721 9.59554C0.868721 8.90515 0.733352 8.41782 0.0429688 7.95757C0.733352 7.52439 0.882258 7.07767 0.882258 6.38729C0.882258 6.10301 0.801037 4.87115 0.801037 4.69517C0.801037 3.24672 1.26129 2.33975 2.89926 2.16377C1.96521 2.96244 1.81631 3.84235 1.81631 5.08774C1.81631 6.56327 1.5591 7.61915 0.638593 7.95757C1.5591 8.30953 1.81631 9.39248 1.81631 10.868C1.81631 12.1134 1.96521 12.9933 2.89926 13.792Z" fill="#D33163"/>
<path d="M13.1448 13.792C14.0789 12.9933 14.2278 12.1134 14.2278 10.868C14.2278 9.39248 14.485 8.30953 15.4055 7.95757C14.485 7.61914 14.2278 6.56326 14.2278 5.08774C14.2278 3.84234 14.0789 2.96244 13.1448 2.16376C14.7828 2.33974 15.2431 3.24672 15.2431 4.69517C15.2431 4.87115 15.1618 6.10301 15.1618 6.38728C15.1618 7.07767 15.3107 7.52439 16.0011 7.95757C15.3107 8.41782 15.1754 8.90515 15.1754 9.59554C15.1754 10.3536 15.2295 10.4348 15.2295 11.0981C15.2295 12.5737 14.837 13.6025 13.1448 13.792Z" fill="#D33163"/>
</svg>
