<svg width="422" height="100" viewBox="0 0 422 100" fill="none" xmlns="http://www.w3.org/2000/svg">
  <path d="M122.32 73.5867C118.596 65.4851 122.658 56.3097 115.199 50C122.483 43.6945 118.509 34.4799 122.217 26.4147C122.43 25.8939 122.376 25.3409 122.135 24.8985C121.894 24.4561 121.466 24.1285 120.933 24.0641C112.437 23.4215 107.042 15.1323 98.1619 18.761C96.5569 9.09001 86.9958 8.07504 82.2577 0.681786C81.9396 0.226795 81.4558 0 80.9734 0C80.491 0 80.0072 0.225395 79.6892 0.681786C74.951 8.07504 65.492 9.09001 63.8883 18.761C55.0084 15.1323 49.5095 23.4215 41.014 24.0641C40.4812 24.1285 40.0531 24.4561 39.8119 24.8985C39.5707 25.3409 39.5164 25.8953 39.7297 26.4147C43.454 34.5163 39.3918 43.6889 46.8509 50C39.5667 56.3055 43.5415 65.5229 39.8331 73.5867C39.6197 74.1047 39.6741 74.6605 39.9153 75.1015C40.1565 75.5439 40.5846 75.8715 41.1174 75.9359C49.6129 76.5785 55.1065 84.9293 63.9864 81.2992C65.5914 90.9702 75.0557 91.925 79.7925 99.3182C80.1106 99.7732 80.5944 100 81.0768 100C81.5592 100 82.043 99.7746 82.3611 99.3182C87.0992 91.925 96.5291 90.9268 98.1341 81.2572C107.014 84.8887 112.542 76.5799 121.036 75.9373C121.569 75.8729 121.997 75.5453 122.238 75.1029C122.48 74.6605 122.534 74.1047 122.32 73.5867ZM80.9721 50.084L80.9628 50.0672H80.9535L80.9443 50.0504H80.9535L80.9628 50.0672H80.9827L80.9721 50.084ZM81.098 49.951L81.0887 49.9328H81.098L81.1073 49.951H81.098Z" fill="#D33163"/>
  <path d="M24.2823 99.6572C9.99654 98.0572 6.68225 89.3714 6.68225 76.9143C6.68225 71.3143 7.1394 70.6286 7.1394 64.2286C7.1394 58.4 5.99654 54.2857 0.167969 50.4C5.99654 46.7429 7.25368 42.9714 7.25368 37.1429C7.25368 34.7429 6.56797 24.3429 6.56797 22.8571C6.56797 10.6286 10.4537 2.97142 24.2823 1.48571C16.3965 8.22857 15.1394 15.6571 15.1394 26.1714C15.1394 38.6286 12.968 47.5429 5.19654 50.4C12.968 53.3714 15.1394 62.5143 15.1394 74.9714C15.1394 85.4857 16.3965 92.9143 24.2823 99.6572Z" fill="#D33163"/>
  <path d="M397.718 99.6572C405.604 92.9143 406.861 85.4857 406.861 74.9714C406.861 62.5143 409.032 53.3714 416.804 50.4C409.032 47.5429 406.861 38.6286 406.861 26.1714C406.861 15.6571 405.604 8.22857 397.718 1.48571C411.547 2.97142 415.432 10.6286 415.432 22.8571C415.432 24.3429 414.746 34.7429 414.746 37.1429C414.746 42.9714 416.004 46.7429 421.832 50.4C416.004 54.2857 414.861 58.4 414.861 64.2286C414.861 70.6286 415.318 71.3143 415.318 76.9143C415.318 89.3714 412.004 98.0572 397.718 99.6572Z" fill="#D33163"/>
  <path d="M186.983 77.3714C188.469 81.2571 190.069 84.8 192.812 88.5714H179.669L169.269 58.9714C166.983 52.4571 166.526 52 162.526 52L153.955 63.6571V70.5143C153.955 76.6857 154.183 81.9429 156.812 88.5714H141.383C143.897 81.9429 144.355 76.6857 144.355 70.5143V32.3429C144.355 26.1714 143.897 20.9143 141.383 14.2857H156.812C154.183 20.9143 153.955 26.1714 153.955 32.3429V59.4286L171.783 32.5714C176.24 25.8286 178.069 20.4571 178.069 14.2857H190.983C185.04 20.3429 181.04 26.6286 174.183 36L164.583 49.1429H167.212C171.097 49.1429 176.583 49.1429 178.412 54.0571L186.983 77.3714Z" fill="#D33163"/>
  <path d="M251.342 88.5714H232.713C233.285 86.9714 233.742 83.8857 233.742 80.4571C233.742 77.4857 233.399 74.2857 232.599 71.4286L230.542 64.5714H208.828L206.771 71.4286C205.856 74.4 205.399 77.8286 205.399 80.8C205.399 84 205.856 86.8571 206.885 88.5714H193.513C197.285 84.1143 199.571 79.0857 202.199 70.8571L219.913 14.2857H225.285L243.113 70.8571C245.742 79.0857 247.799 84.2286 251.342 88.5714ZM209.742 61.2571H229.513L219.685 28.2286L209.742 61.2571Z" fill="#D33163"/>
  <path d="M300.676 77.3714C302.162 82.0571 304.105 84.9143 306.619 88.5714H293.362L284.79 62.2857C283.19 57.2571 281.476 56.9143 279.076 56.9143H269.133V70.5143C269.133 76.6857 269.705 81.9429 272.333 88.5714H256.562C259.076 81.9429 259.533 76.6857 259.533 70.5143V32.3429C259.533 26.1714 259.076 20.9143 256.562 14.2857H277.819C288.105 14.2857 301.59 17.3714 301.59 34.9714C301.59 44 296.676 50.8571 290.276 54.1714C293.133 55.2 294.39 57.3714 295.647 61.4857L300.676 77.3714ZM275.99 53.6C284.105 53.6 291.076 49.3714 291.076 36.9143C291.076 23.8857 285.705 17.6 275.305 17.6C273.362 17.6 271.419 17.6 269.59 17.7143C269.247 22.8571 269.133 27.3143 269.133 32.3429V53.6H275.99Z" fill="#D33163"/>
  <path d="M374.412 28V71.5429C374.412 77.7143 375.212 81.9429 377.612 88.5714H362.183C364.583 81.9429 365.383 77.7143 365.383 71.5429V27.7714L345.726 88.5714H340.126L319.783 27.3143V71.5429C319.783 77.7143 320.469 81.9429 322.869 88.5714H312.812C315.097 81.9429 315.897 77.7143 315.897 71.5429V28C315.897 22.2857 315.326 18.6286 312.812 14.2857H330.869C330.069 15.5429 329.726 17.6 329.726 20C329.726 23.4286 330.412 27.6571 331.669 31.4286L345.726 76.1143L359.555 31.4286C360.697 27.6571 361.497 23.3143 361.497 19.7714C361.497 17.4857 361.155 15.4286 360.355 14.2857H377.612C374.869 18.6286 374.412 22.1714 374.412 28Z" fill="#D33163"/>
</svg>