<?xml version="1.0" encoding="utf-8"?>
<!-- Generator: Adobe Illustrator 28.3.0, SVG Export Plug-In . SVG Version: 6.00 Build 0)  -->
<svg version="1.1" id="Layer_1" xmlns="http://www.w3.org/2000/svg" xmlns:xlink="http://www.w3.org/1999/xlink" x="0px" y="0px"
	 viewBox="0 0 2089.68 830.34" style="enable-background:new 0 0 2089.68 830.34;" xml:space="preserve">
<g>
	<path d="M284.78,519.54c1.76-11.2,2.65-22.96,2.65-35.28V349.44c0-15.68-1.18-29.26-3.53-40.74c-2.36-11.48-5.15-20.86-8.38-28.14
		h89.52c22.05,0,42.12,4.76,60.2,14.28c18.08,9.52,32.56,24.15,43.44,43.89c10.87,19.74,16.32,44.31,16.32,73.71
		c0,29.96-5.51,55.51-16.54,76.65c-11.03,21.14-25.95,37.17-44.76,48.09c-18.82,10.92-39.99,16.38-63.5,16.38h-84.67
		C279.93,542.08,283.02,530.74,284.78,519.54z M357.11,537.6c17.93,0,32.41-5.11,43.44-15.33c11.02-10.22,18.89-23.94,23.59-41.16
		c4.7-17.22,7.06-36.89,7.06-59.01c0-37.52-6.77-67.83-20.29-90.93c-13.53-23.1-33.52-34.65-59.98-34.65
		c-4.71,0-9.34,0.14-13.89,0.42c-4.56,0.28-9.04,0.84-13.45,1.68l16.76-13.86l-1.32,23.94c-0.59,18.48-0.88,32.06-0.88,40.74v134.82
		c0,24.64,1.32,46.2,3.97,64.68l-16.76-14.7C336.23,536.48,346.81,537.6,357.11,537.6z"/>
	<path d="M528.65,519.54c1.76-11.2,2.65-22.96,2.65-35.28V349.44c0-14.28-0.88-26.46-2.65-36.54c-1.76-10.08-4.85-20.86-9.26-32.34
		h65.71c-1.47,10.36-2.36,21.56-2.65,33.6c-0.3,12.04-0.44,23.8-0.44,35.28v134.82c0,25.76,1.47,48.86,4.41,69.3h-67.03
		C523.8,542.08,526.89,530.74,528.65,519.54z M632.51,427.98c-11.62-4.76-26.09-7.14-43.44-7.14h-33.08v-16.38h33.08
		c17.93,0,32.63-2.24,44.1-6.72c11.47-4.48,22.93-12.74,34.4-24.78v79.8C655.8,441,644.12,432.74,632.51,427.98z M666.24,322.56
		c-8.23-7.84-18.52-14-30.87-18.48c-12.35-4.48-27.78-7-46.3-7.56h-15.44v-15.96h117.75l-1.76,72.24
		C682.26,340.48,674.47,330.4,666.24,322.56z M573.63,537.6h14.11c19.4-0.28,35.2-2.59,47.41-6.93
		c12.2-4.34,22.27-10.43,30.21-18.27c7.94-7.84,16.17-18.48,24.7-31.92l0.88,73.08H573.63V537.6z"/>
	<path d="M731.6,307.23c-4.71-9.94-10.29-18.83-16.76-26.67h87.76c-1.47,2.8-2.65,6.72-3.53,11.76s-1.32,10.64-1.32,16.8
		c0,12.6,1.47,24.08,4.41,34.44l50.27,167.58h-11.91l51.16-167.58c1.47-4.76,2.57-10.01,3.31-15.75c0.73-5.74,1.1-11.41,1.1-17.01
		c0-6.44-0.44-12.32-1.32-17.64c-0.88-5.32-2.36-9.52-4.41-12.6h55.12c-7.06,7.84-13.23,16.94-18.52,27.3
		c-5.29,10.36-10.44,22.96-15.43,37.8l-69.68,209.16h-25.14L746.6,345.66C741.3,329.98,736.3,317.17,731.6,307.23z"/>
	<path d="M924.23,526.26c5.29-10.36,10.29-22.96,14.99-37.8l69.68-209.16h25.58l70.12,209.16c5.29,15.68,10.29,28.49,14.99,38.43
		c4.7,9.94,10.29,18.83,16.76,26.67h-87.76c1.47-2.79,2.65-6.72,3.53-11.76s1.32-10.64,1.32-16.8c0-11.48-1.62-22.96-4.85-34.44
		l-49.83-167.58h11.91l-51.16,167.58c-1.47,5.04-2.65,10.43-3.53,16.17c-0.88,5.74-1.32,11.28-1.32,16.59
		c0,6.44,0.51,12.32,1.54,17.64c1.03,5.32,2.57,9.52,4.63,12.6H905.7C912.76,545.73,918.93,536.62,924.23,526.26z M1068.87,451.5
		v13.86H956.86V451.5H1068.87z"/>
	<path d="M1164.13,519.54c1.76-11.2,2.65-22.96,2.65-35.28V349.44c0-11.76-0.88-23.24-2.65-34.44c-1.76-11.76-5-23.24-9.7-34.44
		h71.88c-3.53,11.48-5.95,22.68-7.28,33.6c-1.32,10.92-1.98,22.68-1.98,35.28v134.82c0,13.17,0.44,25.2,1.32,36.12
		s2.5,21.98,4.85,33.18h-68.36C1159.28,542.08,1162.36,530.74,1164.13,519.54z M1208.67,536.34h18.08c14.99,0,28.15-2.03,39.47-6.09
		c11.31-4.06,21.17-10.22,29.55-18.48c8.38-8.26,15.8-18.69,22.27-31.29l-0.88,73.08h-108.49V536.34z"/>
	<path d="M1396.76,541.38c-16.91-12.32-30.06-29.33-39.47-51.03c-9.41-21.7-14.11-46.27-14.11-73.71c0-27.44,4.78-51.87,14.33-73.29
		c9.55-21.42,23-38.08,40.35-49.98c17.34-11.9,37.33-17.85,59.98-17.85c21.46,0,40.57,6.02,57.33,18.06
		c16.76,12.04,29.84,28.91,39.25,50.61c9.41,21.7,14.11,46.55,14.11,74.55c0,27.44-4.71,51.87-14.11,73.29
		c-9.41,21.42-22.79,38.08-40.13,49.98c-17.35,11.9-37.34,17.85-59.98,17.85C1432.84,559.86,1413.66,553.7,1396.76,541.38z
		 M1492.67,527.52c7.06-7.56,12.27-18.41,15.66-32.55c3.38-14.13,5.07-31.15,5.07-51.03c0-29.12-2.72-54.74-8.16-76.86
		c-5.44-22.12-13.31-39.34-23.59-51.66c-10.29-12.32-22.2-18.48-35.72-18.48c-10.88,0-19.84,3.5-26.9,10.5
		c-7.06,7-12.28,17.43-15.66,31.29c-3.38,13.86-5.07,31.15-5.07,51.87c0,28,2.65,53.2,7.94,75.6c5.29,22.4,13.01,40.11,23.15,53.13
		s22.27,19.53,36.38,19.53C1476.65,538.86,1485.62,535.08,1492.67,527.52z"/>
	<path d="M1612.18,519.54c1.76-11.2,2.65-22.96,2.65-35.28V349.44c0-12.6-1.03-24.78-3.09-36.54c-1.76-10.08-4.85-20.86-9.26-32.34
		h74.97c-4.41,11.2-7.43,22.26-9.04,33.18c-1.62,10.92-2.42,22.82-2.42,35.7v134.82c0,1.12,0,2.25,0,3.36
		c0,12.88,0.58,22.54,1.76,28.98c2.05,14,5.29,26.32,9.7,36.96h-74.53C1607.33,542.08,1610.42,530.74,1612.18,519.54z
		 M1655.84,451.08l69.68-101.64c8.82-12.88,14.99-24.57,18.52-35.07s5.14-21.77,4.85-33.81h61.3c-9.7,7.84-19.04,16.73-28,26.67
		c-8.97,9.94-19.04,22.19-30.21,36.75c-4.12,5.32-8.23,10.64-12.35,15.96l-77.17,101.64L1655.84,451.08z M1702.8,424.2
		c-1.62-2.52-3.6-4.06-5.95-4.62c-2.36-0.56-6.03-0.84-11.03-0.84l6.62-11.34h34.4c9.11,0,16.54,0.84,22.27,2.52
		c5.73,1.68,9.63,5.32,11.69,10.92l29.55,86.1c6.17,19.04,14.11,34.58,23.81,46.62h-66.59l-39.25-116.76
		C1706.26,430.92,1704.42,426.72,1702.8,424.2z"/>
</g>
</svg>
