<?xml version="1.0" encoding="utf-8"?>
<!-- Generator: Adobe Illustrator 28.3.0, SVG Export Plug-In . SVG Version: 6.00 Build 0)  -->
<svg version="1.1" id="Layer_1" xmlns="http://www.w3.org/2000/svg" xmlns:xlink="http://www.w3.org/1999/xlink" x="0px" y="0px"
	 viewBox="0 0 32 32" style="enable-background:new 0 0 32 32;" xml:space="preserve">
<style type="text/css">
	.st0{fill:#D33163;}
	.st1{fill:#FFFFFF;}
</style>
<path class="st1" d="M25.97,21.39c-0.9-1.85,0.08-3.95-1.72-5.39c1.76-1.44,0.8-3.55,1.69-5.39c0.05-0.12,0.04-0.25-0.02-0.35
	c-0.06-0.1-0.16-0.18-0.29-0.19c-2.05-0.15-3.35-2.04-5.5-1.21c-0.39-2.21-2.7-2.44-3.84-4.13c-0.08-0.1-0.19-0.16-0.31-0.16
	c-0.12,0-0.23,0.05-0.31,0.16c-1.14,1.69-3.43,1.92-3.82,4.13c-2.14-0.83-3.47,1.07-5.52,1.21c-0.13,0.01-0.23,0.09-0.29,0.19
	c-0.06,0.1-0.07,0.23-0.02,0.35c0.9,1.85-0.08,3.95,1.72,5.39c-1.76,1.44-0.8,3.55-1.69,5.39C6,21.51,6.02,21.64,6.07,21.74
	c0.06,0.1,0.16,0.18,0.29,0.19c2.05,0.15,3.38,2.06,5.52,1.23c0.39,2.21,2.67,2.43,3.82,4.12c0.08,0.1,0.19,0.16,0.31,0.16
	c0.12,0,0.23-0.05,0.31-0.16c1.14-1.69,3.42-1.92,3.81-4.13c2.14,0.83,3.48-1.07,5.53-1.22c0.13-0.01,0.23-0.09,0.29-0.19
	C26.01,21.64,26.02,21.51,25.97,21.39z M15.99,16.02L15.99,16.02L15.99,16.02L15.99,16.02L15.99,16.02L15.99,16.02L15.99,16.02
	L15.99,16.02z M16.02,15.99L16.02,15.99L16.02,15.99L16.02,15.99L16.02,15.99z"/>
</svg>
