<?xml version="1.0" encoding="utf-8"?>
<!-- Generator: Adobe Illustrator 28.3.0, SVG Export Plug-In . SVG Version: 6.00 Build 0)  -->
<svg version="1.1" id="Layer_1" xmlns="http://www.w3.org/2000/svg" xmlns:xlink="http://www.w3.org/1999/xlink" x="0px" y="0px"
	 viewBox="0 0 2087.16 976.24" style="enable-background:new 0 0 2087.16 976.24;" xml:space="preserve">
<style type="text/css">
	.st0{fill:#D33163;}
</style>
<g>
	<path class="st0" d="M295.2,627.02h21.89c22.7,0,32.88,13.42,32.88,35.75c0,28.6-16.39,36.85-29.62,36.85H295.2V627.02z
		 M304.47,635.71v55.22h15.58c13.13,0,20.26-10.34,20.26-27.39c0-17.05-5.7-27.83-23.01-27.83H304.47z"/>
	<path class="st0" d="M365.14,627.02h47.03v8.58h-37.67v22.88h32.99v8.14h-32.99v24.31h37.77v8.69h-47.14V627.02z"/>
	<path class="st0" d="M421.64,677.29l8.35-1.98c-0.81,11.55,6.62,17.27,18.63,17.27c11.4,0,17.61-4.95,17.61-12.1
		c0-7.92-7.84-10.01-17.31-12.21c-12.62-2.97-26.06-6.27-26.06-21.56c0-12.87,9.57-21.12,24.33-21.12s25.45,7.7,25.86,22l-8.75,2.31
		c-0.1-10.56-6.92-15.95-17.21-15.95c-8.96,0-15.27,4.84-15.27,11.99c0,8.69,9.37,11,19.65,13.31c11.61,2.75,23.82,6.27,23.82,21.12
		c0,12.43-9.06,20.68-27.08,20.68C430.6,701.05,420.83,692.8,421.64,677.29z"/>
	<path class="st0" d="M489.64,627.02h9.47v72.6h-9.47V627.02z"/>
	<path class="st0" d="M514.38,663.65c0-23.65,10.79-38.06,30.85-38.06c14.76,0,24.74,8.25,26.06,22.44l-8.96,2.75
		c-0.81-11.88-8.86-16.39-17.31-16.39c-11.71,0-20.87,7.59-20.87,29.04c0,22.33,9.98,28.71,20.26,28.71
		c10.69,0,17.31-6.38,18.53-20.13h-15.37v-8.03h24.74v35.64h-7.64l1.93-19.8h-1.53c-2.75,14.3-9.57,21.23-22.19,21.23
		C526.29,701.05,514.38,688.84,514.38,663.65z"/>
	<path class="st0" d="M587.98,627.02h12.42l35.43,59.18h0.81l-0.71-59.18h9.06v72.6h-11.3l-36.45-60.61h-0.81l0.61,60.61h-9.06
		V627.02z"/>
	<path class="st0" d="M706.48,627.02h13.64l23.62,72.6h-9.98l-5.09-16.28h-30.64l-5.09,16.28h-10.08L706.48,627.02z M700.37,675.64
		h25.96l-12.32-40.15h-1.22L700.37,675.64z"/>
	<path class="st0" d="M755.65,627.02h12.42l35.43,59.18h0.81l-0.71-59.18h9.06v72.6h-11.3l-36.45-60.61h-0.81l0.61,60.61h-9.06
		V627.02z"/>
	<path class="st0" d="M830.37,627.02h21.89c22.7,0,32.88,13.42,32.88,35.75c0,28.6-16.39,36.85-29.62,36.85h-25.15V627.02z
		 M839.63,635.71v55.22h15.58c13.13,0,20.26-10.34,20.26-27.39c0-17.05-5.7-27.83-23.01-27.83H839.63z"/>
	<path class="st0" d="M923.21,677.29l8.35-1.98c-0.81,11.55,6.62,17.27,18.63,17.27c11.4,0,17.61-4.95,17.61-12.1
		c0-7.92-7.84-10.01-17.31-12.21c-12.62-2.97-26.06-6.27-26.06-21.56c0-12.87,9.57-21.12,24.33-21.12c14.76,0,25.45,7.7,25.86,22
		l-8.75,2.31c-0.1-10.56-6.92-15.95-17.21-15.95c-8.96,0-15.27,4.84-15.27,11.99c0,8.69,9.37,11,19.65,13.31
		c11.61,2.75,23.82,6.27,23.82,21.12c0,12.43-9.06,20.68-27.08,20.68C932.17,701.05,922.39,692.8,923.21,677.29z"/>
	<path class="st0" d="M1004.04,635.82h-20.46v-8.8h50.39v8.8h-20.57v63.8h-9.37V635.82z"/>
	<path class="st0" d="M1045.37,627.02h23.31c16.29,0,27.18,7.15,27.18,21.12c0,10.34-5.91,17.16-16.8,18.59v1.43
		c6.62,1.21,11.5,4.18,14.25,14.74l4.38,16.72h-10.08l-3.46-14.96c-2.24-9.46-8.45-12.54-15.58-12.54h-13.95v27.5h-9.26V627.02z
		 M1065.93,663.87c6.72,0,20.36,0,20.36-14.3c0-14.19-13.44-14.19-18.83-14.19h-12.83v28.49H1065.93z"/>
	<path class="st0" d="M1129.66,627.02h13.64l23.62,72.6h-9.98l-5.09-16.28h-30.64l-5.09,16.28h-10.08L1129.66,627.02z
		 M1123.55,675.64h25.96l-12.32-40.15h-1.22L1123.55,675.64z"/>
	<path class="st0" d="M1186.16,635.82h-20.46v-8.8h50.39v8.8h-20.56v63.8h-9.37V635.82z"/>
	<path class="st0" d="M1227.49,627.02h47.03v8.58h-37.67v22.88h32.99v8.14h-32.99v24.31h37.77v8.69h-47.14V627.02z"/>
	<path class="st0" d="M1283.58,663.65c0-23.65,10.79-38.06,30.85-38.06c14.76,0,24.74,8.25,26.06,22.44l-8.96,2.75
		c-0.81-11.88-8.86-16.39-17.31-16.39c-11.71,0-20.87,7.59-20.87,29.04c0,22.33,9.98,28.71,20.26,28.71
		c10.69,0,17.31-6.38,18.53-20.13h-15.37v-8.03h24.74v35.64h-7.64l1.93-19.8h-1.53c-2.75,14.3-9.57,21.23-22.19,21.23
		C1295.5,701.05,1283.58,688.84,1283.58,663.65z"/>
	<path class="st0" d="M1371.34,676.19l-23.62-49.17h10.89l17.21,39.38h0.41l17.1-39.38h10.79l-23.42,49.06v23.54h-9.37V676.19z"/>
	<path class="st0" d="M1437.2,677.29l8.35-1.98c-0.81,11.55,6.62,17.27,18.63,17.27c11.4,0,17.61-4.95,17.61-12.1
		c0-7.92-7.84-10.01-17.31-12.21c-12.62-2.97-26.06-6.27-26.06-21.56c0-12.87,9.57-21.12,24.33-21.12c14.76,0,25.45,7.7,25.86,22
		l-8.75,2.31c-0.1-10.56-6.92-15.95-17.21-15.95c-8.96,0-15.27,4.84-15.27,11.99c0,8.69,9.37,11,19.65,13.31
		c11.61,2.75,23.82,6.27,23.82,21.12c0,12.43-9.06,20.68-27.08,20.68C1446.16,701.05,1436.39,692.8,1437.2,677.29z"/>
	<path class="st0" d="M1518.03,635.82h-20.46v-8.8h50.39v8.8h-20.57v63.8h-9.37V635.82z"/>
	<path class="st0" d="M1558.95,672.01v-44.99h9.37v44.66c0,11.55,4.99,20.13,18.73,20.13c14.05,0,18.73-8.69,18.73-20.13v-44.66
		h9.37v44.99c0,19.03-10.38,29.04-28.1,29.04C1568.73,701.05,1558.95,690.16,1558.95,672.01z"/>
	<path class="st0" d="M1632.35,627.02h21.89c22.7,0,32.88,13.42,32.88,35.75c0,28.6-16.39,36.85-29.63,36.85h-25.15V627.02z
		 M1641.62,635.71v55.22h15.58c13.13,0,20.26-10.34,20.26-27.39c0-17.05-5.7-27.83-23.01-27.83H1641.62z"/>
	<path class="st0" d="M1702.29,627.02h9.47v72.6h-9.47V627.02z"/>
	<path class="st0" d="M1727.03,663.65c0-25.19,12.52-38.06,30.03-38.06c18.12,0,29.83,13.97,29.83,38.06
		c0,22.88-10.59,37.4-29.83,37.4C1737.41,701.05,1727.03,686.31,1727.03,663.65z M1777.42,663.98c0-21.01-9.47-29.48-20.26-29.48
		c-8.04,0-20.57,4.62-20.57,29.15c0,22.66,10.79,28.71,20.36,28.71C1765.51,692.36,1777.42,687.3,1777.42,663.98z"/>
</g>
<g>
	<path class="st0" d="M283.52,517.04c1.76-11.2,2.65-22.96,2.65-35.28V346.94c0-15.68-1.18-29.26-3.53-40.74
		c-2.36-11.48-5.15-20.86-8.38-28.14h89.52c22.05,0,42.12,4.76,60.2,14.28c18.08,9.52,32.56,24.15,43.44,43.89
		c10.87,19.74,16.32,44.31,16.32,73.71c0,29.96-5.51,55.51-16.54,76.65c-11.03,21.14-25.95,37.17-44.76,48.09
		c-18.82,10.92-39.99,16.38-63.5,16.38h-84.67C278.67,539.58,281.76,528.24,283.52,517.04z M355.84,535.1
		c17.93,0,32.41-5.11,43.44-15.33c11.02-10.22,18.89-23.94,23.59-41.16c4.7-17.22,7.06-36.89,7.06-59.01
		c0-37.52-6.77-67.83-20.29-90.93c-13.53-23.1-33.52-34.65-59.98-34.65c-4.71,0-9.34,0.14-13.89,0.42
		c-4.56,0.28-9.04,0.84-13.45,1.68l16.76-13.86l-1.32,23.94c-0.59,18.48-0.88,32.06-0.88,40.74v134.82c0,24.64,1.32,46.2,3.97,64.68
		l-16.76-14.7C334.97,533.98,345.55,535.1,355.84,535.1z"/>
	<path class="st0" d="M527.39,517.04c1.76-11.2,2.65-22.96,2.65-35.28V346.94c0-14.28-0.88-26.46-2.65-36.54
		c-1.76-10.08-4.85-20.86-9.26-32.34h65.71c-1.47,10.36-2.36,21.56-2.65,33.6c-0.3,12.04-0.44,23.8-0.44,35.28v134.82
		c0,25.76,1.47,48.86,4.41,69.3h-67.03C522.54,539.58,525.63,528.24,527.39,517.04z M631.25,425.48
		c-11.62-4.76-26.09-7.14-43.44-7.14h-33.08v-16.38h33.08c17.93,0,32.63-2.24,44.1-6.72c11.47-4.48,22.93-12.74,34.4-24.78v79.8
		C654.54,438.5,642.86,430.24,631.25,425.48z M664.98,320.06c-8.23-7.84-18.52-14-30.87-18.48c-12.35-4.48-27.78-7-46.3-7.56h-15.44
		v-15.96h117.75l-1.76,72.24C681,337.98,673.21,327.9,664.98,320.06z M572.37,535.1h14.11c19.4-0.28,35.2-2.59,47.41-6.93
		c12.2-4.34,22.27-10.43,30.21-18.27c7.94-7.84,16.17-18.48,24.7-31.92l0.88,73.08H572.37V535.1z"/>
	<path class="st0" d="M730.34,304.73c-4.71-9.94-10.29-18.83-16.76-26.67h87.76c-1.47,2.8-2.65,6.72-3.53,11.76
		s-1.32,10.64-1.32,16.8c0,12.6,1.47,24.08,4.41,34.44l50.27,167.58h-11.91l51.16-167.58c1.47-4.76,2.57-10.01,3.31-15.75
		c0.73-5.74,1.1-11.41,1.1-17.01c0-6.44-0.44-12.32-1.32-17.64c-0.88-5.32-2.36-9.52-4.41-12.6h55.12
		c-7.06,7.84-13.23,16.94-18.52,27.3c-5.29,10.36-10.44,22.96-15.43,37.8l-69.68,209.16h-25.14l-70.12-209.16
		C740.04,327.48,735.04,314.67,730.34,304.73z"/>
	<path class="st0" d="M922.97,523.76c5.29-10.36,10.29-22.96,14.99-37.8l69.68-209.16h25.58l70.12,209.16
		c5.29,15.68,10.29,28.49,14.99,38.43c4.7,9.94,10.29,18.83,16.76,26.67h-87.76c1.47-2.79,2.65-6.72,3.53-11.76
		s1.32-10.64,1.32-16.8c0-11.48-1.62-22.96-4.85-34.44L997.5,320.48h11.91l-51.16,167.58c-1.47,5.04-2.65,10.43-3.53,16.17
		c-0.88,5.74-1.32,11.28-1.32,16.59c0,6.44,0.51,12.32,1.54,17.64c1.03,5.32,2.57,9.52,4.63,12.6h-55.12
		C911.5,543.23,917.67,534.12,922.97,523.76z M1067.61,449v13.86H955.6V449H1067.61z"/>
	<path class="st0" d="M1162.87,517.04c1.76-11.2,2.65-22.96,2.65-35.28V346.94c0-11.76-0.88-23.24-2.65-34.44
		c-1.76-11.76-5-23.24-9.7-34.44h71.88c-3.53,11.48-5.95,22.68-7.28,33.6c-1.32,10.92-1.98,22.68-1.98,35.28v134.82
		c0,13.17,0.44,25.2,1.32,36.12s2.5,21.98,4.85,33.18h-68.36C1158.01,539.58,1161.1,528.24,1162.87,517.04z M1207.41,533.84h18.08
		c14.99,0,28.15-2.03,39.47-6.09c11.31-4.06,21.17-10.22,29.55-18.48c8.38-8.26,15.8-18.69,22.27-31.29l-0.88,73.08h-108.49V533.84z
		"/>
	<path class="st0" d="M1395.5,538.88c-16.91-12.32-30.06-29.33-39.47-51.03c-9.41-21.7-14.11-46.27-14.11-73.71
		c0-27.44,4.78-51.87,14.33-73.29c9.55-21.42,23-38.08,40.35-49.98c17.34-11.9,37.33-17.85,59.98-17.85
		c21.46,0,40.57,6.02,57.33,18.06c16.76,12.04,29.84,28.91,39.25,50.61c9.41,21.7,14.11,46.55,14.11,74.55
		c0,27.44-4.71,51.87-14.11,73.29c-9.41,21.42-22.79,38.08-40.13,49.98c-17.35,11.9-37.34,17.85-59.98,17.85
		C1431.58,557.36,1412.4,551.2,1395.5,538.88z M1491.41,525.02c7.06-7.56,12.27-18.41,15.66-32.55c3.38-14.13,5.07-31.15,5.07-51.03
		c0-29.12-2.72-54.74-8.16-76.86c-5.44-22.12-13.31-39.34-23.59-51.66c-10.29-12.32-22.2-18.48-35.72-18.48
		c-10.88,0-19.84,3.5-26.9,10.5c-7.06,7-12.28,17.43-15.66,31.29c-3.38,13.86-5.07,31.15-5.07,51.87c0,28,2.65,53.2,7.94,75.6
		c5.29,22.4,13.01,40.11,23.15,53.13s22.27,19.53,36.38,19.53C1475.38,536.36,1484.36,532.58,1491.41,525.02z"/>
	<path class="st0" d="M1610.92,517.04c1.76-11.2,2.65-22.96,2.65-35.28V346.94c0-12.6-1.03-24.78-3.09-36.54
		c-1.76-10.08-4.85-20.86-9.26-32.34h74.97c-4.41,11.2-7.43,22.26-9.04,33.18c-1.62,10.92-2.42,22.82-2.42,35.7v134.82
		c0,1.12,0,2.25,0,3.36c0,12.88,0.58,22.54,1.76,28.98c2.05,14,5.29,26.32,9.7,36.96h-74.53
		C1606.07,539.58,1609.15,528.24,1610.92,517.04z M1654.58,448.58l69.68-101.64c8.82-12.88,14.99-24.57,18.52-35.07
		s5.14-21.77,4.85-33.81h61.3c-9.7,7.84-19.04,16.73-28,26.67c-8.97,9.94-19.04,22.19-30.21,36.75
		c-4.12,5.32-8.23,10.64-12.35,15.96l-77.17,101.64L1654.58,448.58z M1701.54,421.7c-1.62-2.52-3.6-4.06-5.95-4.62
		c-2.36-0.56-6.03-0.84-11.03-0.84l6.62-11.34h34.4c9.11,0,16.54,0.84,22.27,2.52c5.73,1.68,9.63,5.32,11.69,10.92l29.55,86.1
		c6.17,19.04,14.11,34.58,23.81,46.62h-66.59l-39.25-116.76C1705,428.42,1703.16,424.22,1701.54,421.7z"/>
</g>
</svg>
